<svg id="visual" viewBox="0 0 1600 980" width="1600" height="980" xmlns="http://www.w3.org/2000/svg" xmlns:xlink="http://www.w3.org/1999/xlink" version="1.1"><rect x="0" y="0" width="1600" height="980" fill="#ffffff"></rect><defs><linearGradient id="grad1_0" x1="38.8%" y1="0%" x2="100%" y2="100%"><stop offset="17.346938775510203%" stop-color="#ffffff" stop-opacity="1"></stop><stop offset="82.65306122448979%" stop-color="#ffffff" stop-opacity="1"></stop></linearGradient></defs><defs><linearGradient id="grad2_0" x1="0%" y1="0%" x2="61.3%" y2="100%"><stop offset="17.346938775510203%" stop-color="#ffffff" stop-opacity="1"></stop><stop offset="82.65306122448979%" stop-color="#ffffff" stop-opacity="1"></stop></linearGradient></defs><g transform="translate(1600, 0)"><path d="M0 562.9C-56.7 541.2 -113.4 519.4 -159.5 490.7C-205.5 462 -241 426.4 -289.2 398C-337.4 369.7 -398.3 348.7 -421.5 306.2C-444.7 263.8 -430 199.9 -447 145.2C-464 90.6 -512.5 45.3 -561 0L0 0Z" fill="#e6b779"></path></g><g transform="translate(0, 980)"><path d="M0 -562.9C56.2 -543.2 112.5 -523.6 162.2 -499.3C212 -475 255.3 -446.2 304.5 -419.1C353.7 -392 408.7 -366.7 445.8 -323.9C482.8 -281 501.9 -220.7 504.1 -163.8C506.3 -106.9 491.6 -53.4 477 0L0 0Z" fill="#e6b779"></path></g></svg>